<svg xmlns="http://www.w3.org/2000/svg" xmlns:xlink="http://www.w3.org/1999/xlink" viewBox="0 0 500 285" width="500pt" height="285pt"><defs><clipPath id="_clipPath_qNI7a86huuxctO75XjGOcqrV2cRNvIT4"><rect width="500" height="285"/></clipPath></defs><g clip-path="url(#_clipPath_qNI7a86huuxctO75XjGOcqrV2cRNvIT4)"><rect x="320" y="10" width="150" height="100" transform="matrix(1,0,0,1,0,0)" fill="none" vector-effect="non-scaling-stroke" stroke-width="3" stroke="currentColor" stroke-linejoin="miter" stroke-linecap="square" stroke-miterlimit="2"/><rect x="320" y="120" width="150" height="150" transform="matrix(1,0,0,1,0,0)" fill="none" vector-effect="non-scaling-stroke" stroke-width="3" stroke="currentColor" stroke-linejoin="miter" stroke-linecap="square" stroke-miterlimit="2"/><line x1="335.155" y1="20" x2="335.155" y2="70" vector-effect="non-scaling-stroke" stroke-width="3" stroke="currentColor" stroke-linejoin="miter" stroke-linecap="square" stroke-miterlimit="3"/><line x1="335.155" y1="130" x2="335.155" y2="180" vector-effect="non-scaling-stroke" stroke-width="3" stroke="currentColor" stroke-linejoin="miter" stroke-linecap="square" stroke-miterlimit="3"/><line x1="355.363" y1="130" x2="385.674" y2="130" vector-effect="non-scaling-stroke" stroke-width="3" stroke="currentColor" stroke-linejoin="miter" stroke-linecap="square" stroke-miterlimit="3"/><line x1="370.518" y1="130" x2="370.518" y2="180" vector-effect="non-scaling-stroke" stroke-width="3" stroke="currentColor" stroke-linejoin="miter" stroke-linecap="square" stroke-miterlimit="3"/><path d=" M 47.207 181.664 L 17.361 181.664 L 17.361 128.124 L 23.586 128.124 L 23.586 176.024 L 47.207 176.024 L 47.207 181.664 L 47.207 181.664 Z  M 86.135 176.097 L 86.135 181.664 L 56.289 181.664 L 56.289 128.124 L 86.135 128.124 L 86.135 133.653 L 62.515 133.653 L 62.515 150.902 L 84.707 150.902 L 84.707 156.395 L 62.515 156.395 L 62.515 176.097 L 86.135 176.097 L 86.135 176.097 Z  M 140.737 154.381 L 140.737 154.381 L 140.737 154.381 Q 140.737 167.638 133.541 174.651 L 133.541 174.651 L 133.541 174.651 Q 126.345 181.664 112.832 181.664 L 112.832 181.664 L 98 181.664 L 98 128.124 L 114.407 128.124 L 114.407 128.124 Q 126.895 128.124 133.816 135.045 L 133.816 135.045 L 133.816 135.045 Q 140.737 141.966 140.737 154.381 Z  M 134.146 154.601 L 134.146 154.601 L 134.146 154.601 Q 134.146 144.127 128.89 138.817 L 128.89 138.817 L 128.89 138.817 Q 123.635 133.507 113.271 133.507 L 113.271 133.507 L 104.226 133.507 L 104.226 176.28 L 111.807 176.28 L 111.807 176.28 Q 122.939 176.28 128.542 170.805 L 128.542 170.805 L 128.542 170.805 Q 134.146 165.331 134.146 154.601 Z  M 194.497 128.124 L 194.497 181.664 L 187.393 181.664 L 158.132 136.729 L 157.839 136.729 L 157.839 136.729 Q 158.425 144.64 158.425 151.231 L 158.425 151.231 L 158.425 181.664 L 152.676 181.664 L 152.676 128.124 L 159.707 128.124 L 188.894 172.875 L 189.187 172.875 L 189.187 172.875 Q 189.114 171.886 188.857 166.521 L 188.857 166.521 L 188.857 166.521 Q 188.601 161.156 188.674 158.849 L 188.674 158.849 L 188.674 128.124 L 194.497 128.124 L 194.497 128.124 Z  M 215.444 181.664 L 209.219 181.664 L 209.219 128.124 L 215.444 128.124 L 215.444 181.664 L 215.444 181.664 Z  M 253.054 132.921 L 253.054 132.921 L 253.054 132.921 Q 244.229 132.921 239.12 138.799 L 239.12 138.799 L 239.12 138.799 Q 234.011 144.676 234.011 154.894 L 234.011 154.894 L 234.011 154.894 Q 234.011 165.404 238.937 171.135 L 238.937 171.135 L 238.937 171.135 Q 243.862 176.866 252.981 176.866 L 252.981 176.866 L 252.981 176.866 Q 258.584 176.866 265.762 174.852 L 265.762 174.852 L 265.762 180.309 L 265.762 180.309 Q 260.195 182.396 252.029 182.396 L 252.029 182.396 L 252.029 182.396 Q 240.2 182.396 233.773 175.218 L 233.773 175.218 L 233.773 175.218 Q 227.346 168.041 227.346 154.82 L 227.346 154.82 L 227.346 154.82 Q 227.346 146.544 230.441 140.318 L 230.441 140.318 L 230.441 140.318 Q 233.535 134.093 239.376 130.724 L 239.376 130.724 L 239.376 130.724 Q 245.217 127.354 253.127 127.354 L 253.127 127.354 L 253.127 127.354 Q 261.55 127.354 267.849 130.431 L 267.849 130.431 L 265.212 135.777 L 265.212 135.777 Q 259.133 132.921 253.054 132.921 Z  M 307.29 176.097 L 307.29 181.664 L 277.444 181.664 L 277.444 128.124 L 307.29 128.124 L 307.29 133.653 L 283.669 133.653 L 283.669 150.902 L 305.862 150.902 L 305.862 156.395 L 283.669 156.395 L 283.669 176.097 L 307.29 176.097 L 307.29 176.097 Z " fill="currentColor"/></g></svg>