<?xml version="1.0" standalone="no"?>
<!DOCTYPE svg PUBLIC "-//W3C//DTD SVG 20010904//EN"
 "http://www.w3.org/TR/2001/REC-SVG-20010904/DTD/svg10.dtd">
<svg version="1.0" xmlns="http://www.w3.org/2000/svg"
 width="512.000000pt" height="512.000000pt" viewBox="0 0 512.000000 512.000000"
 preserveAspectRatio="xMidYMid meet">
<metadata>
Created by potrace 1.14, written by Peter Selinger 2001-2017
</metadata>
<g transform="translate(0.000000,512.000000) scale(0.100000,-0.100000)"
fill="#000000" stroke="none">
<path d="M1309 4912 c-39 -20 -62 -41 -84 -77 l-30 -48 -3 -458 -3 -458 -517
-3 c-567 -3 -542 -1 -606 -64 -66 -66 -61 30 -61 -1244 0 -1274 -5 -1178 61
-1244 64 -63 39 -61 606 -64 l517 -3 3 -458 3 -458 30 -48 c22 -36 45 -57 84
-77 l53 -28 1792 0 1792 0 55 28 c40 20 61 39 84 76 l30 49 0 2227 0 2227 -30
48 c-22 36 -45 57 -84 77 l-53 28 -1793 0 -1793 0 -53 -28z m-99 -2192 l0
-640 355 0 355 0 0 -155 0 -155 -562 2 -563 3 -3 793 -2 792 210 0 210 0 0
-640z"/>
</g>
</svg>
